<svg fill="none" height="56" viewBox="0 0 189 56" width="189" xmlns="http://www.w3.org/2000/svg" xmlns:xlink="http://www.w3.org/1999/xlink"><clipPath id="a"><path d="m0 0h189v56h-189z"/></clipPath><g clip-path="url(#a)"><path d="m176.9 29c.3-2 1.3-2.9 3.5-2.9 2.5 0 3.2 1.2 3.4 2.9zm12.1 2.1c0-5.4-2.5-9-8.6-9-6.6 0-8.6 4.4-8.6 9 0 5.4 2.5 9 8.9 9 5 0 7.7-2.4 8-5.7h-5c-.3 1.1-1.1 1.6-3 1.6-2.5 0-3.6-1-3.8-3.5h12.1c0-.5 0-1 0-1.4zm-17.6-4.1v-4.9c-.2 0-.7-.1-.9-.1-2.6 0-4 1.1-4.6 2.5v-2h-4.9v17h5.1v-9.5c0-2.2 1.3-3.1 3.2-3.1.6 0 1.3 0 2.1.1zm-25.2 4.1c0-2.8 1.2-4.5 4-4.5s4 1.6 4 4.5c0 2.8-1.2 4.5-4 4.5s-4-1.7-4-4.5zm-5.1 0c0 5.4 2.7 9 9.1 9 6.5 0 9.1-3.6 9.1-9s-2.7-9-9.1-9c-6.5 0-9.1 3.6-9.1 9zm-22.9-5.4 6.1 13.8h3.6l6.1-13.8v13.8h5.5v-23.5h-6.5l-6.8 15.4-6.9-15.4h-6.5v23.6h5.5v-13.9zm-26.6 10.2c-1.8 0-3-1-3-2.5 0-1.2.4-2.2 2.5-3.3l4.4 4.7c-1.2.7-2.4 1.1-3.9 1.1zm1.5-16.3c1.5 0 2.7.9 2.7 2.2 0 1.2-.8 2.1-2.6 2.9l-.8.4-.5-.5c-.8-.8-1.5-1.8-1.5-2.8-.1-1.3.8-2.2 2.7-2.2zm13.4 20-4.5-4.6c1.5-1.9 2.6-4.1 3-6.5h-5c-.3 1-.7 2.1-1.3 3l-3.2-3.3.1-.1c3-1.3 5-3.3 5-6.1 0-3.8-2.3-6.5-7.3-6.5-5.3 0-7.6 3-7.6 6.4 0 1.9 1 3.5 2.5 5.1-3 1.5-4.7 3.6-4.7 6.4 0 4.2 2.6 6.7 8 6.7 2.6 0 5-.8 7-2.1l1.4 1.5h6.6zm-37.2.5c5.5 0 7.9-2.1 7.9-5.7 0-3.5-2.2-4.9-6.5-5.5l-1.8-.2c-1.4-.2-1.9-.6-1.9-1.3s.6-1.3 2.3-1.3 2.3.6 2.4 1.6h4.9c-.2-3.7-2.7-5.5-7.4-5.5-5.3 0-7.4 2.4-7.4 5.6 0 3.4 2.2 4.8 5.9 5.3l1.8.2c1.8.2 2.4.6 2.4 1.5s-.8 1.4-2.8 1.4-2.8-.6-3-1.9h-5c.3 3.5 2.4 5.8 8.2 5.8zm-21-11.1c.3-2 1.3-2.9 3.5-2.9 2.5 0 3.2 1.2 3.4 2.9zm12.1 2.1c0-5.4-2.5-9-8.6-9-6.6 0-8.6 4.4-8.6 9 0 5.4 2.5 9 8.9 9 5 0 7.7-2.4 8-5.7h-5c-.4 1.1-1.1 1.6-3.1 1.6-2.5 0-3.6-1-3.8-3.5h12.1c.1-.5.1-1 .1-1.4zm-22 8.5h3.1v-23.6h-5.1v21.5c0 1.4.7 2.1 2 2.1zm-4.4-17h-5.1v17h5.1zm0-6.6h-5.1v4.3h5.1zm-28.5 9.7 6.1 13.8h3.6l6.1-13.8v13.8h5.5v-23.5h-6.5l-6.8 15.4-7-15.4h-6.5v23.6h5.5z" fill="#fff"/></g></svg>