<svg width="189" height="56" viewBox="0 0 189 56" fill="none" xmlns="http://www.w3.org/2000/svg">
<g clip-path="url(#clip0_768_792)">
<path d="M176.9 29C177.2 27 178.2 26.1 180.4 26.1C182.9 26.1 183.6 27.3 183.8 29H176.9ZM189 31.1C189 25.7 186.5 22.1 180.4 22.1C173.8 22.1 171.8 26.5 171.8 31.1C171.8 36.5 174.3 40.1 180.7 40.1C185.7 40.1 188.4 37.7 188.7 34.4H183.7C183.4 35.5 182.6 36 180.7 36C178.2 36 177.1 35 176.9 32.5H189C189 32 189 31.5 189 31.1ZM171.4 27V22.1C171.2 22.1 170.7 22 170.5 22C167.9 22 166.5 23.1 165.9 24.5V22.5H161V39.5H166.1V30C166.1 27.8 167.4 26.9 169.3 26.9C169.9 26.9 170.6 26.9 171.4 27ZM146.2 31.1C146.2 28.3 147.4 26.6 150.2 26.6C153 26.6 154.2 28.2 154.2 31.1C154.2 33.9 153 35.6 150.2 35.6C147.4 35.6 146.2 33.9 146.2 31.1ZM141.1 31.1C141.1 36.5 143.8 40.1 150.2 40.1C156.7 40.1 159.3 36.5 159.3 31.1C159.3 25.7 156.6 22.1 150.2 22.1C143.7 22.1 141.1 25.7 141.1 31.1ZM118.2 25.7L124.3 39.5H127.9L134 25.7V39.5H139.5V16H133L126.2 31.4L119.3 16H112.8V39.6H118.3V25.7H118.2ZM91.6 35.9C89.8 35.9 88.6 34.9 88.6 33.4C88.6 32.2 89 31.2 91.1 30.1L95.5 34.8C94.3 35.5 93.1 35.9 91.6 35.9ZM93.1 19.6C94.6 19.6 95.8 20.5 95.8 21.8C95.8 23 95 23.9 93.2 24.7L92.4 25.1L91.9 24.6C91.1 23.8 90.4 22.8 90.4 21.8C90.3 20.5 91.2 19.6 93.1 19.6ZM106.5 39.6L102 35C103.5 33.1 104.6 30.9 105 28.5H100C99.7 29.5 99.3 30.6 98.7 31.5L95.5 28.2L95.6 28.1C98.6 26.8 100.6 24.8 100.6 22C100.6 18.2 98.3 15.5 93.3 15.5C88 15.5 85.7 18.5 85.7 21.9C85.7 23.8 86.7 25.4 88.2 27C85.2 28.5 83.5 30.6 83.5 33.4C83.5 37.6 86.1 40.1 91.5 40.1C94.1 40.1 96.5 39.3 98.5 38L99.9 39.5H106.5V39.6ZM69.3 40.1C74.8 40.1 77.2 38 77.2 34.4C77.2 30.9 75 29.5 70.7 28.9L68.9 28.7C67.5 28.5 67 28.1 67 27.4C67 26.7 67.6 26.1 69.3 26.1C71 26.1 71.6 26.7 71.7 27.7H76.6C76.4 24 73.9 22.2 69.2 22.2C63.9 22.2 61.8 24.6 61.8 27.8C61.8 31.2 64 32.6 67.7 33.1L69.5 33.3C71.3 33.5 71.9 33.9 71.9 34.8C71.9 35.7 71.1 36.2 69.1 36.2C67.1 36.2 66.3 35.6 66.1 34.3H61.1C61.4 37.8 63.5 40.1 69.3 40.1ZM48.3 29C48.6 27 49.6 26.1 51.8 26.1C54.3 26.1 55 27.3 55.2 29H48.3ZM60.4 31.1C60.4 25.7 57.9 22.1 51.8 22.1C45.2 22.1 43.2 26.5 43.2 31.1C43.2 36.5 45.7 40.1 52.1 40.1C57.1 40.1 59.8 37.7 60.1 34.4H55.1C54.7 35.5 54 36 52 36C49.5 36 48.4 35 48.2 32.5H60.3C60.4 32 60.4 31.5 60.4 31.1ZM38.4 39.6H41.5V16H36.4V37.5C36.4 38.9 37.1 39.6 38.4 39.6ZM34 22.6H28.9V39.6H34V22.6ZM34 16H28.9V20.3H34V16ZM5.5 25.7L11.6 39.5H15.2L21.3 25.7V39.5H26.8V16H20.3L13.5 31.4L6.5 16H0V39.6H5.5V25.7Z" fill="white"/>
</g>
<defs>
<clipPath id="clip0_768_792">
<rect width="189" height="56" fill="white"/>
</clipPath>
</defs>
</svg>
