<svg width="1280" height="659" viewBox="0 0 1280 659" fill="none" xmlns="http://www.w3.org/2000/svg">
<path d="M131 395C95.3673 397.341 0 489.5 0 489.5V351C0 351 76.5798 304.884 106 296.5C362 223.55 552.106 588.896 645 464C676.238 422 443.138 335 465.5 243.5C475.561 202.332 498.076 170.499 532 133.5C617.139 40.6438 752.137 6.66844 873.5 20C1085.42 43.2791 1110.46 182.678 1244.5 308C1256.12 318.864 1275 335 1275 335L1280.5 340.5V610.5C1214.11 608.279 1164.84 593.827 1114.5 548.5C1015.94 459.754 1033.48 287.743 926.5 212.5C874.971 176.256 667.517 115.434 624.5 198C580.536 282.384 820.5 321.5 825 426.5C829.581 533.402 750.966 589.2 624.5 601C416.175 620.438 326.408 382.163 131 395Z" fill="url(#paint0_linear_886_414)" fill-opacity="0.75"/>
<path d="M494.5 213.666C507.345 310.142 646 401.666 634.5 446.666C603.298 568.762 198 183.5 -0.5 347.5V450.5C-0.5 450.5 50.6881 407.67 101.5 399.666C230.823 379.293 355.91 517.279 457.5 571.166C543.212 616.63 701.051 644.223 751.5 529.166C818 377.5 547.72 280.215 602 201.666C656.187 123.251 829.06 278.619 859.5 311.666C959.551 420.287 967.451 563.52 1120.5 629.166C1179.86 654.626 1279.5 658.5 1279.5 658.5V353.5C1279.5 353.5 1244.34 391.21 1211 399.666C1097.68 428.407 1003 76.9241 738.5 7.16579C602 -28.8342 476.115 75.5737 494.5 213.666Z" fill="url(#paint1_linear_886_414)"/>
<defs>
<linearGradient id="paint0_linear_886_414" x1="344.5" y1="473" x2="988.5" y2="190" gradientUnits="userSpaceOnUse">
<stop stop-color="#F4FEFF"/>
<stop offset="0.52" stop-color="#B8D0FF"/>
<stop offset="1" stop-color="#C097FD"/>
</linearGradient>
<linearGradient id="paint1_linear_886_414" x1="459" y1="507.166" x2="1168.5" y2="220.166" gradientUnits="userSpaceOnUse">
<stop stop-color="#E4F6FF"/>
<stop offset="0.346774" stop-color="#A1B9FD"/>
<stop offset="1" stop-color="#D261F7"/>
</linearGradient>
</defs>
</svg>
