<svg fill="none" height="53" viewBox="0 0 53 53" width="53" xmlns="http://www.w3.org/2000/svg"><path d="m2.86774.676758c-1.35932 0-2.4715 1.112172-2.4715 2.471502v46.95854c0 1.3594 1.11218 2.4715 2.4715 2.4715h46.95856c1.3593 0 2.4715-1.1121 2.4715-2.4715v-46.95854c0-1.35933-1.1122-2.471502-2.4715-2.471502zm28.42226 12.357542c7.501 0 13.5933 6.0922 13.5933 13.5932 0 7.5011-6.0923 13.5933-13.5933 13.5933h-6.1787-5.5609c-6.4753 0-11.73965-5.2643-11.73965-11.7396 0-6.4754 5.26435-11.7397 11.73965-11.7397.7538 0 1.482.0741 2.1988.21 2.4591-2.4221 5.8212-3.9172 9.5408-3.9172zm0 2.4715c-2.5456 0-4.979.8659-6.9438 2.4353.8032.4078 1.555.9023 2.247 1.4336 1.3841-.9144 3.0039-1.3974 4.6968-1.3974 4.77 0 8.6503 3.8802 8.6503 8.6502s-3.8803 8.6503-8.6503 8.6503c-3.8432 0-6.4989-2.9038-9.3164-5.9808-.7167-.7909-1.4334-1.5708-2.1625-2.3122-.482-.482-1.2752-.482-1.7571 0-.482.4819-.482 1.2751 0 1.757.7167.7044 1.4102 1.4691 2.1022 2.2229l1.2961 1.4096c1.5447 1.6435 3.1769 3.1866 5.1047 4.1875 1.3964.7291 2.9536 1.1875 4.733 1.1875 6.1294 0 11.1218-4.9924 11.1218-11.1218 0-6.1293-4.9924-11.1217-11.1218-11.1217zm-11.7396 3.7072c-5.116 0-9.2681 4.1522-9.2681 9.2682s4.1521 9.2681 9.2681 9.2681c1.1616 0 2.2994-.2098 3.3621-.6299-.7909-.6179-1.5218-1.2853-2.1891-1.9526-.3831.0741-.7776.111-1.173.111-3.7443 0-6.7966-3.0523-6.7966-6.7966 0-3.7444 3.0523-6.7967 6.7966-6.7967 2.8175 0 5.1906 2.4827 7.2914 4.6824.3831.3954.7398.7808 1.0982 1.1392.4819.4819 1.2751.4819 1.7571 0 .4819-.482.4819-1.2752 0-1.7571-.346-.346-.706-.7154-1.0644-1.0861-.9886-1.0504-2.0878-2.1883-3.3235-3.1521-.5685-.4573-1.1628-.8632-1.8054-1.2092-1.1986-.6673-2.5076-1.0886-3.9534-1.0886z" fill="#000"/></svg>