<svg fill="none" height="148" viewBox="0 0 237 148" width="237" xmlns="http://www.w3.org/2000/svg" xmlns:xlink="http://www.w3.org/1999/xlink"><mask id="a" height="148" maskUnits="userSpaceOnUse" width="237" x="0" y="0"><rect fill="#f5f5f5" height="146.389" rx="10" width="236.694" y=".908447"/></mask><g mask="url(#a)"><path d="m-.950562 10.9084c0-5.5228 4.477152-9.999953 10.000002-9.999953h216.69356c5.523 0 10 4.477153 10 9.999953v126.3896c0 5.522-4.477 10-10 10h-216.69356c-5.52284 0-10.000002-4.478-10.000002-10z" fill="#f5f5f5"/><path d="m94.8677 47.6768c-1.3593 0-2.4715 1.1121-2.4715 2.4715v46.9585c0 1.3594 1.1122 2.4715 2.4715 2.4715h46.9583c1.36 0 2.472-1.1121 2.472-2.4715v-46.9585c0-1.3594-1.112-2.4715-2.472-2.4715zm28.4223 12.3575c7.501 0 13.593 6.0922 13.593 13.5932 0 7.5011-6.092 13.5933-13.593 13.5933h-6.179-5.561c-6.475 0-11.7392-5.2643-11.7392-11.7396 0-6.4754 5.2642-11.7397 11.7392-11.7397.754 0 1.482.0741 2.199.21 2.459-2.4221 5.821-3.9172 9.541-3.9172zm0 2.4715c-2.546 0-4.979.8659-6.944 2.4353.803.4078 1.555.9023 2.247 1.4336 1.384-.9144 3.004-1.3974 4.697-1.3974 4.77 0 8.65 3.8802 8.65 8.6502s-3.88 8.6503-8.65 8.6503c-3.843 0-6.499-2.9038-9.316-5.9808-.717-.7909-1.434-1.5708-2.163-2.3122-.482-.482-1.275-.482-1.757 0-.482.4819-.482 1.2751 0 1.757.717.7044 1.41 1.4691 2.102 2.2229l1.296 1.4096c1.545 1.6435 3.177 3.1866 5.105 4.1875 1.396.7291 2.954 1.1875 4.733 1.1875 6.129 0 11.122-4.9924 11.122-11.1218 0-6.1293-4.993-11.1217-11.122-11.1217zm-11.74 3.7072c-5.116 0-9.268 4.1522-9.268 9.2682s4.152 9.2681 9.268 9.2681c1.162 0 2.3-.2098 3.363-.6299-.791-.6179-1.522-1.2853-2.19-1.9526-.383.0741-.777.111-1.173.111-3.744 0-6.796-3.0523-6.796-6.7966 0-3.7444 3.052-6.7967 6.796-6.7967 2.818 0 5.191 2.4827 7.292 4.6824.383.3954.74.7808 1.098 1.1392.482.4819 1.275.4819 1.757 0 .482-.482.482-1.2752 0-1.7571-.346-.346-.706-.7154-1.064-1.0861-.989-1.0504-2.088-2.1883-3.324-3.1521-.568-.4573-1.163-.8632-1.805-1.2092-1.199-.6673-2.508-1.0886-3.954-1.0886z" fill="#000"/></g></svg>