<svg fill="none" height="28" viewBox="0 0 28 28" width="28" xmlns="http://www.w3.org/2000/svg"><path d="m13.9999.400024c-7.51063 0-13.600028 6.089396-13.600028 13.599976 0 6.3728 4.388268 11.7051 10.304228 13.1807-.0634-.1836-.1042-.3967-.1042-.6607v-2.3245c-.552 0-1.47676 0-1.7091 0-.93046 0-1.75779-.4001-2.159-1.1435-.44539-.8262-.52246-2.0899-1.62633-2.8628-.32753-.2573-.0782-.5508.2992-.5112.697.1972 1.275.6755 1.819 1.385.54174.7106.79673.8715 1.8088.8715.49073 0 1.22513-.0283 1.91643-.1371.3718-.9441 1.0144-1.8134 1.7998-2.2236-4.52883-.4658-6.69009-2.7189-6.69009-5.7778 0-1.3169.561-2.5908 1.51413-3.664-.3128-1.06538-.70607-3.23798.12013-4.06531 2.03774 0 3.26963 1.32147 3.56543 1.67847 1.0155-.34794 2.1307-.54514 3.3026-.54514 1.1741 0 2.2938.1972 3.3116.5474.2924-.35473 1.5254-1.68073 3.5677-1.68073.8296.82847.4318 3.01013.1156 4.07321.9475 1.071 1.5051 2.3415 1.5051 3.6561 0 3.0566-2.1579 5.3086-6.6799 5.7766 1.2444.6494 2.1522 2.4741 2.1522 3.8488v3.0986c0 .1178-.0261.2028-.0397.3037 5.2995-1.8575 9.1064-6.8895 9.1064-12.8237 0-7.51058-6.0894-13.599976-13.6-13.599976z" fill="#000"/></svg>