<svg fill="none" height="47" viewBox="0 0 92 47" width="92" xmlns="http://www.w3.org/2000/svg"><g fill="#000"><path d="m40.3617 44.1567h-38.02313l19.01153-19.0116zm-.9506-39.92428-38.973692 39.13528v-18.3842l20.751092-20.75108zm-20.9127 0-18.060992 18.06098v-18.06098z"/><path d="m76.5407.429932c2.5096 5.806848-8.9972 9.392898-10.0666 14.230168-.9803 4.4451 6.8371 9.6103 6.8442 9.6103-1.187-1.8393-2.0604-3.3543-3.251-6.2167-2.014-4.8409 12.266-9.22184 6.4734-17.623768zm7.6427 8.041888s-10.0951.64877-10.6085 7.10078c-.2281 2.8732 2.6557 4.3846 2.7377 6.4735.0677 1.7075-1.711 3.1369-1.711 3.1369s3.2367-.6167 4.2491-3.2225c1.1228-2.8909-2.1888-4.8444-1.8537-7.1578.3208-2.2137 7.1864-6.33088 7.1864-6.33088zm-15.8556 14.91458s-9.2397-.1319-9.2397 2.481c0 2.7305 12.095 2.9337 20.7321 1.2548 0 0 2.2957-1.5792 2.9088-2.1673-5.6607 1.1549-18.5648 1.2832-18.5648.2851 0-.9197 4.1636-1.8536 4.1636-1.8536zm17.7663 0c-.9055.0713-1.8822.4206-2.7662 1.0551 2.0817-.4491 3.8498.8413 3.8498 2.3099 0 3.3081-4.7909 6.4165-4.7909 6.4165s7.4145-.8413 7.4145-6.2739c0-2.4667-1.7146-3.6644-3.7072-3.5076zm-19.9907 5.0761c-1.4187 0-3.5362 1.1122-3.5362 2.1673 0 2.121 10.6655 3.7536 18.5648.6559l-2.7376-1.6825c-5.3542 1.7146-15.214 1.1549-12.291-1.1407zm1.3118 4.7624c-1.9427 0-3.2225 1.1728-3.2225 2.0532 0 2.7234 11.603 2.9979 16.1979.2282l-2.9088-1.8537c-3.4328 1.4509-12.0486 1.6719-10.0666-.4277zm-6.4734 2.4525c-3.1655-.0642-5.2187 1.3581-5.2187 2.538 0 6.2738 32.3957 5.9851 32.3957-.4277 0-1.0659-1.2298-1.5828-1.6825-1.8251 2.6485 6.1312-26.5212 5.6428-26.5212 2.0247 0-.8235 2.146-1.6112 4.135-1.2263l-1.6825-.9696c-.4955-.0748-.9731-.1033-1.4258-.114zm30.5991 4.2205c-4.9264 4.6698-17.4099 6.363-29.9718 3.4792 12.5584 5.1402 29.9112 2.2564 29.9718-3.4792z"/></g></svg>