<svg fill="none" height="147" viewBox="0 0 237 147" width="237" xmlns="http://www.w3.org/2000/svg" xmlns:xlink="http://www.w3.org/1999/xlink"><mask id="a" height="147" maskUnits="userSpaceOnUse" width="237" x="0" y="0"><rect fill="#f5f5f5" height="146.389" rx="10" width="236.694" x=".144043"/></mask><g mask="url(#a)"><path d="m.144043 10c0-5.52285 4.477157-10 9.999957-10h216.694c5.523 0 10 4.47715 10 10v126.389c0 5.523-4.477 10-10 10h-216.694c-5.5228 0-9.999957-4.477-9.999957-10z" fill="#f5f5f5"/><g fill="#000"><path d="m111.362 93.1567h-38.0234l19.0115-19.0116zm-.951-39.9243-38.9736 39.1353v-18.3842l20.7511-20.7511zm-20.9126 0-18.061 18.061v-18.061z"/><path d="m147.541 49.4299c2.509 5.8069-8.997 9.3929-10.067 14.2302-.98 4.4451 6.837 9.6103 6.844 9.6103-1.187-1.8393-2.06-3.3543-3.251-6.2167-2.014-4.8409 12.266-9.2218 6.474-17.6238zm7.642 8.0419s-10.095.6488-10.608 7.1008c-.228 2.8732 2.656 4.3846 2.738 6.4735.067 1.7075-1.711 3.1369-1.711 3.1369s3.236-.6167 4.249-3.2225c1.123-2.8909-2.189-4.8444-1.854-7.1578.321-2.2137 7.186-6.3309 7.186-6.3309zm-15.855 14.9146s-9.24-.1319-9.24 2.481c0 2.7305 12.095 2.9337 20.732 1.2548 0 0 2.296-1.5792 2.909-2.1673-5.661 1.1549-18.565 1.2832-18.565.2851 0-.9197 4.164-1.8536 4.164-1.8536zm17.766 0c-.905.0713-1.882.4206-2.766 1.0551 2.082-.4491 3.85.8413 3.85 2.3099 0 3.3081-4.791 6.4165-4.791 6.4165s7.414-.8413 7.414-6.2739c0-2.4667-1.714-3.6644-3.707-3.5076zm-19.991 5.0761c-1.418 0-3.536 1.1122-3.536 2.1673 0 2.121 10.666 3.7536 18.565.6559l-2.738-1.6825c-5.354 1.7146-15.214 1.1549-12.291-1.1407zm1.312 4.7624c-1.943 0-3.222 1.1728-3.222 2.0532 0 2.7234 11.603 2.9979 16.198.2282l-2.909-1.8537c-3.433 1.4509-12.049 1.6719-10.067-.4277zm-6.473 2.4525c-3.166-.0642-5.219 1.3581-5.219 2.538 0 6.2738 32.396 5.9851 32.396-.4277 0-1.0659-1.23-1.5828-1.683-1.8251 2.649 6.1312-26.521 5.6428-26.521 2.0247 0-.8235 2.146-1.6112 4.135-1.2263l-1.682-.9696c-.496-.0748-.974-.1033-1.426-.114zm30.599 4.2205c-4.926 4.6698-17.41 6.363-29.972 3.4792 12.558 5.1402 29.911 2.2564 29.972-3.4792z"/></g></g></svg>