<svg fill="none" height="30" viewBox="0 0 30 30" width="30" xmlns="http://www.w3.org/2000/svg"><path d="m25.88.719971h-21.76c-1.8768 0-3.399999 1.523199-3.399999 3.399999v21.76003c0 1.8768 1.523199 3.4 3.399999 3.4h21.76c1.8768 0 3.4-1.5232 3.4-3.4v-21.76003c0-1.8768-1.5232-3.399999-3.4-3.399999zm-16.32 10.880029v12.92h-4.08v-12.92zm-4.08-3.76043c0-.952.816-1.6796 2.04-1.6796s1.9924.7276 2.04 1.6796c0 .952-.7616 1.7204-2.04 1.7204-1.224 0-2.04-.7684-2.04-1.7204zm19.04 16.68043h-4.08s0-6.2968 0-6.8c0-1.36-.68-2.72-2.38-2.7472h-.0544c-1.6456 0-2.3256 1.4008-2.3256 2.7472v6.8h-4.08v-12.92h4.08v1.7408s1.3124-1.7408 3.9508-1.7408c2.6996 0 4.8892 1.8564 4.8892 5.6168z" fill="#000"/></svg>