<svg fill="none" height="34" viewBox="0 0 90 34" width="90" xmlns="http://www.w3.org/2000/svg"><path d="m11.7925 0v32.578h3.8115v-23.56159c.0279-1.48272-.0279-2.9822-.1899-4.46492h.1452c.2765.71204.6255 1.39616 1.0332 2.0356l16.7539 25.97421h4.6688v-32.5613h-3.7948v22.9054c-.0446 1.6.0447 3.2.2318 4.7861h-.0866c-.2038-.3937-.6534-1.1197-1.3235-2.1808l-16.3044-25.50790655zm34.6723 0v32.578h17.3208l.0139-3.5769h-13.4394v-11.3006h11.7668v-3.4317h-11.7668v-10.82028h12.6241v-3.44572655zm20.2443 0v3.44573h9.3655v29.12947h3.8115v-29.12947h9.4688v-3.44573zm-64.28207 27.9232c-.63944.014-1.25096.2904-1.700521.7707-.466318.4663-.72600413 1.1197-.72600413 1.7899-.01396167.6702.26247813 1.3096.72600413 1.7899.463521.4803 1.119721.7567 1.789881.7427.68412 0 1.32356-.2624 1.78988-.7427.48028-.4663.75672-1.1197.75672-1.7899s-.27644-1.3236-.75672-1.7899c-.46632-.4942-1.10576-.7707-1.78988-.7707-.02792 0-.06143 0-.08936 0z" fill="#000"/></svg>