<svg fill="none" height="14" viewBox="0 0 96 14" width="96" xmlns="http://www.w3.org/2000/svg"><path clip-rule="evenodd" d="m42.6211.976902c-.5977 0-1.5938.199218-2.0508.996088l-6.3515 11.00391 3.457.0234 4.9336-8.54293 2.3437 4.03125-4.5-.01172 1.7578 2.9883 4.4766.0234.8437 1.4883h3.4688l-6.375-11.03906c-.6445-1.007814-1.4883-.960938-2.0039-.960938zm14.1445 0c-3.1875 0-5.7656 2.683598-5.7656 5.999998s2.5781 6 5.7656 6l6.2344.0469 3-3.0469-9.2695.0234c-1.6875-.0234-2.6953-1.62887-2.7305-3.01168-.0469-1.48828 1.0781-3.04688 2.7539-3.07031l6.2461.08203 3-3.023438zm-50.7656.023438c-3.17578 0-6 2.84765-6 6.16406 0 3.3164 2.82422 5.8359 6 5.8359h6c3.1758 0 6-2.6836 6-5.99996 0-3.31641-2.8242-6-6-6zm15 0v11.99996h3v-8.99996h3.8438c1.1367-.01172 2.1562.41015 2.1562 1.48828 0 1.0664-.9961 1.52344-2.0156 1.52344l-3.9844-.01172 5.0859 6.02346 3.9141-.0235-3.0703-3.60934s3.0469-.89062 3.0703-3.94922c.0117-2.53125-1.5234-4.41796-4.1016-4.4414zm51 0h-3v10.85156c0 .293.1055.5859.3281.8086.1992.2109.4922.3398.7969.3398l7.875.0235 3-3.0235h-9zm14.4023.02344c-3.1875 0-5.7656 2.68359-5.7656 5.99999 0 3.31643 2.5781 6.00003 5.7656 6.00003h6.5977l3-3h-9.6445c-.7266.082-2.0977-.52737-2.4375-1.81643l9.082.10547 2.9648-2.73047s-8.9296.04687-12 .05859c.2813-1.38281 2.3907-1.61718 2.3907-1.61718h6.6445l3-3zm-80.4023 2.97656h6c.5977.01171 2.7305.91406 2.7188 2.98828-.0118 2.25-1.9571 3-2.7188 3.01168h-6c-1.37109-.01168-2.76562-1.59371-2.76562-2.95309 0-1.6875 1.59374-3.07031 2.76562-3.04687z" fill="#000" fill-rule="evenodd"/></svg>