<svg fill="none" height="28" viewBox="0 0 28 28" width="28" xmlns="http://www.w3.org/2000/svg"><path d="m25.2194.258606h-22.4906c-1.38047 0-2.52891 1.150784-2.52891 2.528904v22.49059c0 1.3735 1.14844 2.5219 2.52891 2.5219h22.4906c1.3711 0 2.5196-1.1484 2.5196-2.5219v-22.49059c0-1.37812-1.1485-2.528904-2.5196-2.528904zm-16.52576 18.541394h-3.21562c-.4711-.0164-.57657-.4148-.34219-.757l3.33047-6.143c.11015-.1125.11015-.2765 0-.3937l-2.1961-3.83441c-.11718-.22969 0-.57188.22969-.57188h3.3c.11719 0 .23201.02578.34691.22969l2.4492 4.2938c.1101.1125.1101.2226 0 .3421l-3.56017 6.5391s-.13594.2836-.34219.2953zm13.99926-14.52186-6.443 11.82186c-.1125.1172-.1125.1828 0 .3l4.1437 7.3828c.2297.436 0 .7172-.3398.7172h-3.2109c-.1172 0-.1875-.0797-.3493-.3703l-4.3593-7.7297c-.0797-.089-.0774-.1969 0-.3047l6.6586-12.27888c.1336-.25781.3398-.31641.457-.31641h3.15c.4055-.01172.4734.4125.293.77813z" fill="#000"/></svg>