<svg width="30" height="30" viewBox="0 0 30 30" fill="none" xmlns="http://www.w3.org/2000/svg">
<path d="M25.88 0.719971H4.12C2.2432 0.719971 0.720001 2.24317 0.720001 4.11997V25.88C0.720001 27.7568 2.2432 29.28 4.12 29.28H25.88C27.7568 29.28 29.28 27.7568 29.28 25.88V4.11997C29.28 2.24317 27.7568 0.719971 25.88 0.719971ZM9.56 11.6V24.52H5.48V11.6H9.56ZM5.48 7.83957C5.48 6.88757 6.296 6.15997 7.52 6.15997C8.744 6.15997 9.5124 6.88757 9.56 7.83957C9.56 8.79157 8.7984 9.55997 7.52 9.55997C6.296 9.55997 5.48 8.79157 5.48 7.83957ZM24.52 24.52H20.44C20.44 24.52 20.44 18.2232 20.44 17.72C20.44 16.36 19.76 15 18.06 14.9728H18.0056C16.36 14.9728 15.68 16.3736 15.68 17.72C15.68 18.3388 15.68 24.52 15.68 24.52H11.6V11.6H15.68V13.3408C15.68 13.3408 16.9924 11.6 19.6308 11.6C22.3304 11.6 24.52 13.4564 24.52 17.2168V24.52Z" fill="black"/>
</svg>
