<?xml version="1.0" standalone="no"?>
<!DOCTYPE svg PUBLIC "-//W3C//DTD SVG 20010904//EN"
 "http://www.w3.org/TR/2001/REC-SVG-20010904/DTD/svg10.dtd">
<svg version="1.0" xmlns="http://www.w3.org/2000/svg"
 width="512.000000pt" height="512.000000pt" viewBox="0 0 512.000000 512.000000"
 preserveAspectRatio="xMidYMid meet">
<metadata>
Created by potrace 1.14, written by Peter Selinger 2001-2017
</metadata>
<g transform="translate(0.000000,512.000000) scale(0.100000,-0.100000)"
fill="#000000" stroke="none">
<path d="M1328 3622 l-28 -3 0 -783 0 -783 80 1 80 0 0 783 c0 739 -1 783 -17
784 -68 3 -91 4 -115 1z"/>
<path d="M4216 2848 c1 -425 2 -778 3 -785 1 -7 26 -11 76 -10 l75 1 1 280 c1
155 1 286 0 291 -1 6 11 -3 25 -20 37 -41 197 -216 268 -292 32 -35 66 -72 75
-82 9 -10 49 -54 89 -98 l72 -79 100 0 c55 1 101 4 102 7 3 6 -96 113 -344
373 -42 45 -102 108 -133 141 l-56 60 270 265 c149 146 271 267 271 270 0 3
-45 5 -101 5 l-101 -1 -265 -267 c-145 -147 -266 -267 -269 -267 -2 0 -4 221
-4 490 l0 490 -78 0 -77 0 1 -772z"/>
<path d="M3414 3184 c-189 -31 -294 -153 -282 -324 6 -84 39 -144 103 -194 51
-38 99 -59 277 -115 69 -22 142 -50 161 -62 120 -79 107 -237 -24 -285 -66
-24 -192 -25 -263 -2 -68 22 -134 65 -168 108 l-23 30 -63 -56 -63 -56 48 -44
c104 -94 239 -142 393 -139 156 4 240 33 322 115 82 82 107 182 74 292 -33
110 -115 170 -334 244 -84 29 -173 64 -196 78 -49 28 -84 88 -80 133 1 15 2
33 3 40 1 7 14 28 31 46 39 45 95 60 202 55 98 -4 156 -29 225 -96 l44 -42 55
47 c29 26 54 51 54 57 0 5 -17 25 -37 44 -121 112 -281 156 -459 126z"/>
<path d="M300 3183 c-77 -9 -183 -27 -237 -40 l-63 -15 0 -814 c0 -644 3 -814
13 -815 6 -1 41 -1 77 -2 l65 0 0 292 c0 196 3 290 10 287 74 -28 248 -38 353
-20 282 48 456 244 467 524 11 277 -132 490 -387 574 -65 22 -223 37 -298 29z
m203 -143 c143 -32 260 -146 293 -286 12 -50 13 -217 3 -264 -33 -149 -138
-255 -292 -296 -71 -19 -227 -12 -297 12 l-55 19 0 395 0 395 60 16 c74 19
224 24 288 9z"/>
<path d="M2225 3183 c-192 -29 -297 -100 -387 -263 -68 -123 -84 -363 -34
-516 26 -80 85 -178 135 -223 34 -31 118 -84 156 -99 88 -34 225 -45 340 -28
99 15 207 68 277 135 l26 26 -46 51 -47 50 -30 -28 c-102 -98 -295 -134 -444
-83 -70 24 -150 98 -185 170 -27 55 -63 201 -52 212 3 3 193 6 421 6 l416 0
-2 75 c-8 320 -177 505 -469 516 -30 1 -64 0 -75 -1z m200 -155 c90 -36 154
-108 174 -196 19 -82 20 -102 8 -103 -7 0 -160 -2 -340 -2 l-329 -2 7 39 c9
59 59 156 101 199 20 20 56 46 80 57 77 38 217 41 299 8z"/>
<path d="M906 1640 c-1 -3 -2 -34 -2 -69 1 -60 3 -65 26 -70 19 -5 753 -6 892
-2 26 1 27 2 27 71 0 39 -3 71 -7 71 -24 4 -934 3 -936 -1z"/>
</g>
</svg>
