<svg fill="none" height="148" viewBox="0 0 374 148" width="374" xmlns="http://www.w3.org/2000/svg" xmlns:xlink="http://www.w3.org/1999/xlink"><mask id="a" height="148" maskUnits="userSpaceOnUse" width="374" x="0" y="0"><rect fill="#f5f5f5" height="146.389" rx="10" width="373.577" x=".422729" y=".908447"/></mask><g mask="url(#a)"><path d="m.422729 10.9084c0-5.5228 4.477151-9.999953 9.999971-9.999953h354.5283c5.522 0 10 4.477153 10 9.999953v126.3896c0 5.522-4.478 10-10 10h-354.5283c-5.52283 0-9.999971-4.478-9.999971-10z" fill="#f5f5f5"/><g fill="#000"><path d="m51.8863 60.6936c-2.3836 0-4.8034.9452-5.2066 1.4621-.1051.2139-.349 1.9425.2294 1.9425.1928 0 .2812.0341.8421-.2333 2.1031-.8377 3.4357-.818 3.6285-.818 2.366-.2317 3.7327 1.4089 3.5223 3.5298v1.2463c-1.998-.4813-3.1395-.4978-3.7003-.4978-2.9094-.1783-5.5968 1.3817-5.5968 4.8109 0 3.7607 3.3007 4.565 4.5801 4.5115 1.9104.0178 3.7337-.8556 4.943-2.3706.9639 2.1922 1.5776 2.0469 1.5951 2.0469.1753 0 .3151-.071.4553-.1602l.9996-.7136c.1752-.1069.3145-.2839.332-.4978-.0175-.5169-.9293-1.3189-.8592-3.1191v-5.5593c.1052-1.5328-.3835-3.0328-1.4001-4.1913-1.2093-1.0338-2.8046-1.5316-4.3644-1.389zm33.9538 0c-3.5053 0-5.5193 2.2271-5.4667 4.4907 0 3.1012 3.0828 4.0843 3.4333 4.1913 2.962.9446 3.3662.9788 4.1899 1.6918.7011.7307.613 2.1576-.421 2.7814-.298.1782-1.5788.9611-4.4706.3551-.964-.1961-1.4706-.4272-2.2593-.7659-.2103-.0713-.7017-.1965-.7017.463v.8738c0 .4099.2447.7825.6127.9608 1.8403.9446 4.0488.9816 4.522.9816.0701 0 4.1.0022 5.4495-2.764.2787-.5703 1.0004-2.6526-.3491-4.4349-1.1217-1.3368-2.0858-1.4795-4.9601-2.3707-.2454-.0713-2.3658-.6259-2.3482-2.1409-.1052-1.9427 2.4895-2.0477 3.0328-2.012 2.1908-.0357 3.2757.7994 3.8716.8528.2629 0 .3868-.1587.3868-.5152v-.8215c.0175-.1961-.0523-.3896-.1575-.55-.701-.9269-3.383-1.2672-4.3644-1.2672zm-26.6044.4456c-.1928.0357-.3329.2321-.2978.4282.035.2317.0698.4645.1574.6962l3.9263 13.1691c.0877.4278.3656.8928.9791.8215h1.4377c.8763.0892.9991-.7672 1.0166-.8563l2.5776-10.9795 2.6118 10.9969c.0176.0891.1408.9455.9996.8564h1.4548c.631.0712.929-.3938 1.0167-.8216 4.4166-14.4547 4.1171-13.4721 4.1522-13.6147.0701-.7485-.3509-.6966-.421-.6788h-1.561c-.7887-.0891-.9439.6433-.979.8216l-2.9096 11.425-2.629-11.425c-.1227-.8734-.8243-.8394-.9995-.8216h-1.3487c-.7712-.0713-.9641.5542-1.0167.8216l-2.6118 11.2649-2.8035-11.2649c-.0701-.3565-.2989-.9103-.9825-.839zm-7.4555 8.2538c1.2619.0178 2.3511.2116 3.1047.3898 0 .8912.0319 1.3911-.1609 2.1932-.2453.8555-1.3298 2.408-3.8886 2.4437-1.4722.0713-2.4359-1.107-2.3483-2.4437-.0876-2.1389 2.0838-2.6722 3.2931-2.583zm39.4649 10.8924c-1.6358.0232-3.5667.3958-5.0319 1.4412-.4522.319-.373.762.1301.7032 1.6474-.2014 5.3144-.6536 5.9698.1984.6573.8519-.7267 4.3668-1.3384 5.9388-.1893.4687.2109.6628.6333.3063 2.7411-2.3348 3.4533-7.2294 2.8925-7.9335-.2813-.352-1.6195-.6776-3.2554-.6544zm-48.7655 1.7823c-.3822.0535-.5468.5461-.1472.9364 6.8651 6.5483 15.9364 9.7541 26.0087 9.7541 7.1841 0 15.5241-2.3837 21.2815-6.8752.9517-.7468.141-1.8658-.8353-1.4237-6.4549 2.8962-13.4658 4.2922-19.8471 4.2922-9.4572 0-18.6124-2.0079-26.019-6.5689-.1621-.0998-.3142-.1327-.4416-.1149z"/><path d="m131.305 55.0913c-1.522 0-2.833.8429-3.594 2.0794l-4.842 8.674 4.159 7.3076 6-10.4564h22.636l-3.06-5.5252c-.761-1.2365-2.072-2.0794-3.594-2.0794zm2.763 9.5058-5.971 10.4564 4.842 8.466 1.129 1.9903h12.09l6.06-10.4563-6.06-10.4564zm14.348 0 6 10.4564-.297.4752-11.199 19.4869h6.09c1.522 0 2.833-.8429 3.594-2.0794l8.853-15.6845c.761-1.3294.761-3.0411 0-4.2776l-4.664-8.377zm-26.705 3.2379-2.941 5.1391c-.761 1.3293-.761 2.9482 0 4.2776l8.852 15.6845c.761 1.3293 2.072 2.0794 3.594 2.0794h9.417l4.456-7.6046h-12.061l-1.604-2.8518-.119-.1782-5.406-9.3275zm18.447 2.4656c2.662 0 4.753 2.0905 4.753 4.7529 0 2.6623-2.091 4.7528-4.753 4.7528-2.663 0-4.753-2.0905-4.753-4.7528 0-2.6624 2.09-4.7529 4.753-4.7529z"/><path d="m233.988 90.1044-18.172-31.7482-7.089 14.2773 12.481 14.4647-23.164 2.6304zm-35.844-23.7643-12.081 20.3834 10.284-1.0337 18.071-32.9691z"/><path clip-rule="evenodd" d="m293.791 69.328c-.568 0-1.515.1893-1.949.9468l-6.038 10.4601 3.286.0223 4.69-8.1208 2.228 3.832-4.278-.0111 1.671 2.8406 4.256.0223.802 1.4147h3.297l-6.06-10.4935c-.613-.958-1.415-.9134-1.905-.9134zm13.446 0c-3.03 0-5.481 2.5509-5.481 5.7034s2.451 5.7035 5.481 5.7035l5.926.0446 2.852-2.8963-8.812.0222c-1.604-.0222-2.562-1.5484-2.595-2.8628-.045-1.4148 1.025-2.8963 2.618-2.9186l5.937.078 2.852-2.874zm-48.257.0222c-3.019 0-5.703 2.707-5.703 5.8595s2.684 5.5475 5.703 5.5475h5.704c3.018 0 5.703-2.551 5.703-5.7035s-2.685-5.7035-5.703-5.7035zm14.259 0v11.407h2.851v-8.5552h3.654c1.081-.0112 2.05.3899 2.05 1.4147 0 1.0137-.947 1.4481-1.916 1.4481l-3.788-.0111 4.835 5.7258 3.721-.0223-2.919-3.431s2.896-.8466 2.919-3.7541c.011-2.4061-1.448-4.1996-3.899-4.2219zm48.479 0h-2.852v10.3153c0 .2785.101.557.312.7686.19.2005.468.3231.758.3231l7.486.0223 2.851-2.8741h-8.555zm13.691.0223c-3.03 0-5.481 2.551-5.481 5.7035s2.451 5.7035 5.481 5.7035h6.271l2.852-2.8518h-9.168c-.69.078-1.994-.5013-2.317-1.7266l8.633.1002 2.819-2.5955s-8.489.0446-11.407.0557c.267-1.3145 2.272-1.5372 2.272-1.5372h6.316l2.852-2.8518zm-76.429 2.8295h5.704c.568.0111 2.595.8689 2.584 2.8406-.011 2.1388-1.86 2.8517-2.584 2.8628h-5.704c-1.303-.0111-2.629-1.5149-2.629-2.8071 0-1.6041 1.515-2.9186 2.629-2.8963z" fill-rule="evenodd"/></g></g></svg>