<svg fill="none" height="25" viewBox="0 0 139 25" width="139" xmlns="http://www.w3.org/2000/svg"><path d="m3.952 19v-10.192h-3.276v-2.704h3.276v-2.392c0-.884.26-1.586.78-2.106.53733-.53733 1.23067-.806001 2.08-.806001h3.38v2.704001h-2.236c-.48533 0-.728.26-.728.78v1.82h3.38v2.704h-3.38v10.192zm13.6366.364c-1.2827 0-2.418-.2687-3.406-.806-.9707-.5547-1.7334-1.326-2.288-2.314-.5374-1.0053-.806-2.184-.806-3.536v-.312c0-1.352.2686-2.522.806-3.51.5373-1.00533 1.2913-1.77667 2.262-2.314.9706-.55467 2.0973-.832 3.38-.832 1.2653 0 2.366.286 3.302.858.936.55467 1.664 1.33467 2.184 2.34.52.988.78 2.1407.78 3.458v1.118h-9.386c.0346.884.364 1.6033.988 2.158s1.3866.832 2.288.832c.9186 0 1.5946-.1993 2.028-.598.4333-.3987.7626-.8407.988-1.326l2.678 1.404c-.2427.4507-.598.9447-1.066 1.482-.4507.52-1.0574.9707-1.82 1.352-.7627.364-1.7334.546-2.912.546zm-3.146-8.294h6.032c-.0694-.7453-.3727-1.34333-.91-1.794-.52-.45067-1.2047-.676-2.054-.676-.884 0-1.586.22533-2.106.676s-.8407 1.0487-.962 1.794zm11.2758 7.93v-18.200001h3.276v18.200001zm5.9063 0v-12.896h3.276v12.896zm1.638-14.404c-.5893 0-1.092-.19067-1.508-.572-.3987-.38133-.598-.884-.598-1.508s.1993-1.12667.598-1.508c.416-.381334.9187-.572001 1.508-.572001.6067 0 1.1093.190667 1.508.572001.3987.38133.598.884.598 1.508s-.1993 1.12667-.598 1.508-.9013.572-1.508.572zm3.1242 14.404 4.68-6.5-4.628-6.396h3.796l2.938 4.29h.468l2.938-4.29h3.796l-4.628 6.396 4.68 6.5h-3.848l-2.938-4.342h-.468l-2.938 4.342zm15.5308 0v-18.200001h3.276v6.890001h.468c.1386-.27733.3553-.55467.65-.832.2946-.27733.6846-.50267 1.17-.676.5026-.19067 1.1353-.286 1.898-.286 1.0053 0 1.8806.234 2.626.702.7626.45067 1.352 1.08333 1.768 1.898.416.79733.624 1.7333.624 2.808v7.696h-3.276v-7.436c0-.9707-.2427-1.69867-.728-2.184-.468-.48533-1.144-.728-2.028-.728-1.0054 0-1.7854.338-2.34 1.014-.5547.6587-.832 1.586-.832 2.782v6.552zm20.8974.364c-1.2826 0-2.418-.2687-3.406-.806-.9706-.5547-1.7333-1.326-2.288-2.314-.5373-1.0053-.806-2.184-.806-3.536v-.312c0-1.352.2687-2.522.806-3.51.5374-1.00533 1.2914-1.77667 2.262-2.314.9707-.55467 2.0974-.832 3.38-.832 1.2654 0 2.366.286 3.302.858.936.55467 1.664 1.33467 2.184 2.34.52.988.78 2.1407.78 3.458v1.118h-9.386c.0347.884.364 1.6033.988 2.158s1.3867.832 2.288.832c.9187 0 1.5947-.1993 2.028-.598.4334-.3987.7627-.8407.988-1.326l2.678 1.404c-.2426.4507-.598.9447-1.066 1.482-.4506.52-1.0573.9707-1.82 1.352-.7626.364-1.7333.546-2.912.546zm-3.146-8.294h6.032c-.0693-.7453-.3726-1.34333-.91-1.794-.52-.45067-1.2046-.676-2.054-.676-.884 0-1.586.22533-2.106.676s-.8406 1.0487-.962 1.794zm19.0239 8.294c-1.1613 0-2.054-.1993-2.678-.598s-1.0833-.8407-1.378-1.326h-.468v1.56h-3.224v-18.200001h3.276v6.786001h.468c.1907-.312.442-.60667.754-.884.3293-.27733.754-.50267 1.274-.676.5373-.19067 1.196-.286 1.976-.286 1.04 0 2.002.26 2.886.78.884.50267 1.5947 1.248 2.132 2.236s.806 2.184.806 3.588v.416c0 1.404-.2687 2.6-.806 3.588s-1.248 1.742-2.132 2.262c-.884.5027-1.846.754-2.886.754zm-.988-2.86c1.0053 0 1.846-.3207 2.522-.962.676-.6587 1.014-1.612 1.014-2.86v-.26c0-1.248-.338-2.1927-1.014-2.834-.6587-.65867-1.4993-.988-2.522-.988-1.0053 0-1.846.32933-2.522.988-.676.6413-1.014 1.586-1.014 2.834v.26c0 1.248.338 2.2013 1.014 2.86.676.6413 1.5167.962 2.522.962zm8.1961-3.9v-.416c0-1.352.2686-2.50467.806-3.458.5373-.97067 1.248-1.70733 2.132-2.21.9013-.52 1.8809-.78 2.9379-.78 1.179 0 2.071.208 2.678.624s1.049.84933 1.326 1.3h.468v-1.56h3.224v15.184c0 .884-.26 1.586-.78 2.106-.52.5373-1.213.806-2.08.806h-8.6319v-2.86h7.4879c.485 0 .728-.26.728-.78v-3.354h-.468c-.173.2773-.416.5633-.728.858-.312.2773-.728.5113-1.248.702s-1.179.286-1.976.286c-1.057 0-2.0366-.2513-2.9379-.754-.884-.52-1.5947-1.2567-2.132-2.21-.5374-.9707-.806-2.132-.806-3.484zm6.8119 3.588c1.005 0 1.846-.3207 2.522-.962s1.014-1.5427 1.014-2.704v-.26c0-1.1787-.338-2.08-1.014-2.704-.659-.64133-1.499-.962-2.522-.962-1.005 0-1.846.32067-2.522.962-.6759.624-1.0139 1.5253-1.0139 2.704v.26c0 1.1613.338 2.0627 1.0139 2.704.676.6413 1.517.962 2.522.962zm15.268 3.172c-1.283 0-2.418-.2687-3.406-.806-.971-.5547-1.733-1.326-2.288-2.314-.537-1.0053-.806-2.184-.806-3.536v-.312c0-1.352.269-2.522.806-3.51.537-1.00533 1.291-1.77667 2.262-2.314.971-.55467 2.097-.832 3.38-.832 1.265 0 2.366.286 3.302.858.936.55467 1.664 1.33467 2.184 2.34.52.988.78 2.1407.78 3.458v1.118h-9.386c.035.884.364 1.6033.988 2.158s1.387.832 2.288.832c.919 0 1.595-.1993 2.028-.598s.763-.8407.988-1.326l2.678 1.404c-.243.4507-.598.9447-1.066 1.482-.451.52-1.057.9707-1.82 1.352-.763.364-1.733.546-2.912.546zm-3.146-8.294h6.032c-.069-.7453-.373-1.34333-.91-1.794-.52-.45067-1.205-.676-2.054-.676-.884 0-1.586.22533-2.106.676s-.841 1.0487-.962 1.794zm11.276 7.93v-12.896h3.224v1.69h.468c.208-.45067.598-.87533 1.17-1.274.572-.416 1.439-.624 2.6-.624 1.005 0 1.881.234 2.626.702.763.45067 1.352 1.08333 1.768 1.898.416.79733.624 1.7333.624 2.808v7.696h-3.276v-7.436c0-.9707-.243-1.69867-.728-2.184-.468-.48533-1.144-.728-2.028-.728-1.005 0-1.785.338-2.34 1.014-.555.6587-.832 1.586-.832 2.782v6.552z" fill="#4c4c4c"/></svg>